<svg xmlns="http://www.w3.org/2000/svg" viewBox="0 0 135 40" width="135" height="40">
  <rect width="135" height="40" rx="6" fill="#000000" stroke="#333333" stroke-width="0.8"/>
  <!-- Apple Logo -->
  <path d="M22.2,14.4c0-2.4,2-3.6,2.1-3.6c-1.1-1.6-2.8-1.9-3.4-1.9c-1.5-0.2-3,0.9-3.8,0.9s-2-0.9-3.2-0.9 c-1.6,0-3.1,0.9-3.9,2.4c-1.7,2.9-0.4,7.2,1.2,9.6c0.8,1.2,1.8,2.5,3.1,2.4c1.2,0,1.7-0.8,3.2-0.8s1.9,0.8,3.1,0.8 c1.3,0,2.2-1.2,3-2.4c0.9-1.3,1.3-2.6,1.3-2.7C28.7,22.7,22.2,20.2,22.2,14.4z M18.8,7c0.7-0.8,1.1-2,1-3.1 c-1,0-2.2,0.7-2.9,1.5c-0.6,0.7-1.1,1.9-1,3C16.9,8.5,18.1,7.8,18.8,7z" fill="#FFFFFF"/>
  <!-- Text -->
  <text x="35" y="15" fill="#FFFFFF" font-family="-apple-system, BlinkMacSystemFont, 'Segoe UI', 'SF Pro Text', Roboto, sans-serif" font-size="6" font-weight="500" letter-spacing="0.2px">Download on the</text>
  <text x="35" y="27" fill="#FFFFFF" font-family="-apple-system, BlinkMacSystemFont, 'Segoe UI', 'SF Pro Display', Roboto, sans-serif" font-size="11" font-weight="700" letter-spacing="-0.3px">App Store</text>
</svg>
